<svg aria-hidden="true" style="position: absolute; width: 0; height: 0; overflow: hidden;" version="1.1" xmlns="http://www.w3.org/2000/svg" xmlns:xlink="http://www.w3.org/1999/xlink">
<defs>
<symbol id="icon-flag" viewBox="0 0 31 32">
<path d="M1.117 2.759l-0.604 14.261c-0.193 4.697-0.555 9.419-0.513 14.122 0.006 0.755 2.343 0.26 2.409-0.471 0.435-4.679 0.471-9.419 0.664-14.116l0.592-14.11c0.042-1.045-2.524-0.531-2.554 0.32l0.006-0.006z"></path>
<path d="M1.509 3.647c8.072-0.417 16.133-1.214 24.145-2.264l-0.827-0.888c-3.285 2.669-6.696 5.156-10.276 7.414-0.525 0.332-0.688 0.851 0.012 1.051 4.552 1.286 9.105 2.578 13.651 3.876l0.948-1.389c-9.189 1.6-18.385 3.285-27.484 5.343-0.344 0.078-1.032 0.374-1.014 0.815s0.694 0.477 1.008 0.417c9.039-1.769 18.065-3.592 27.14-5.174 0.441-0.079 1.105-0.242 1.352-0.676 0.217-0.38-0.036-0.61-0.405-0.712-4.558-1.28-9.117-2.566-13.669-3.858l0.012 1.051c3.719-2.367 7.312-4.939 10.711-7.746 0.749-0.616-0.29-0.966-0.827-0.888-7.915 1.093-15.879 1.817-23.861 2.312-0.411 0.024-1.135 0.278-1.292 0.712s0.302 0.622 0.676 0.604z"></path>
</symbol>
<symbol id="icon-plane" viewBox="0 0 27 32">
<path d="M7.039 11.931c5.152-2.918 10.304-5.836 15.456-8.754 1.461-0.829 2.928-1.651 4.379-2.499 0.2-0.115 0.364-0.354 0.115-0.508s-0.688-0.007-0.92 0.121c-5.191 2.853-10.32 5.826-15.472 8.744l-4.395 2.489c-0.21 0.118-0.377 0.373-0.118 0.531s0.721 0.010 0.963-0.128l-0.007 0.003z"></path>
<path d="M25.911 0.534c-0.088 6.848-0.242 13.696-0.465 20.541-0.062 1.955-0.134 3.91-0.206 5.866-0.020 0.517 1.248 0.262 1.264-0.157 0.262-6.845 0.455-13.689 0.583-20.538 0.036-1.955 0.066-3.914 0.092-5.869 0.007-0.521-1.261-0.259-1.264 0.157h-0.003z"></path>
<path d="M6.020 11.911c5.378 3.639 10.265 7.929 15.217 12.111 1.389 1.172 2.787 2.338 4.202 3.481 0.226 0.183 0.59 0.121 0.838 0.013 0.124-0.052 0.563-0.324 0.337-0.508-5.090-4.113-9.937-8.528-15.138-12.504-1.454-1.11-2.935-2.184-4.451-3.209-0.341-0.229-1.51 0.272-1.006 0.612v0.003z"></path>
<path d="M25.825 0.347c-3.704 4.107-7.343 8.273-10.916 12.491-1.019 1.202-2.031 2.41-3.039 3.622-0.197 0.236 0.167 0.364 0.344 0.373 0.301 0.016 0.642-0.111 0.835-0.344 3.537-4.251 7.137-8.45 10.805-12.589 1.045-1.179 2.096-2.355 3.151-3.527 0.21-0.233-0.177-0.364-0.344-0.373-0.311-0.016-0.629 0.118-0.835 0.344v0.003z"></path>
<path d="M24.361 1.182c-2.168 4.89-4.238 9.828-6.197 14.806-0.557 1.412-1.104 2.826-1.644 4.244-0.105 0.272 0.406 0.285 0.547 0.272 0.265-0.029 0.616-0.157 0.721-0.429 1.903-5.001 3.907-9.963 6.020-14.878 0.599-1.395 1.205-2.784 1.821-4.172 0.118-0.269-0.419-0.285-0.547-0.272-0.278 0.033-0.599 0.16-0.721 0.429z"></path>
<path d="M16.376 19.935c-0.894 1.326-1.854 2.6-2.791 3.897-0.167 0.229 0.141 0.347 0.324 0.354 0.285 0.010 0.609-0.102 0.793-0.328 1.005-1.244 1.919-2.571 2.813-3.897 0.16-0.239-0.138-0.354-0.331-0.36-0.269-0.007-0.648 0.095-0.809 0.334z"></path>
<path d="M12.279 16.942c0.298 2.663 0.521 5.348 0.92 8.001 0.062 0.413 1.235 0.118 1.202-0.321-0.203-2.676-0.583-5.345-0.884-8.011-0.046-0.409-1.29-0.134-1.238 0.331z"></path>
<path d="M15.236 24.418c0.554-0.508 1.127-0.992 1.72-1.454s1.202-0.852 1.821-1.307c0.183-0.138 0.147-0.347-0.059-0.416-0.262-0.088-0.586 0-0.816 0.134-0.678 0.393-1.317 0.884-1.936 1.362s-1.182 0.96-1.742 1.474c-0.069 0.062-0.154 0.17-0.124 0.272s0.154 0.154 0.246 0.174c0.285 0.062 0.675-0.039 0.894-0.239h-0.003z"></path>
<path d="M16.373 22.522c0.39-0.373 0.783-0.743 1.173-1.12 0.062-0.062 0.141-0.154 0.115-0.252s-0.141-0.144-0.226-0.16c-0.144-0.026-0.298-0.016-0.436 0.026s-0.285 0.095-0.39 0.196c-0.396 0.37-0.789 0.743-1.182 1.117-0.066 0.062-0.144 0.157-0.118 0.255s0.144 0.147 0.229 0.164c0.144 0.026 0.301 0.016 0.442-0.026s0.288-0.098 0.393-0.2z"></path>
<path d="M14.889 23.135l-0.118 0.059c-0.131 0.066 0.085-0.043-0.020 0.010l0.701 0.337c0.655-0.714 1.336-1.402 2.031-2.080 0.062-0.062 0.141-0.154 0.115-0.252s-0.141-0.144-0.226-0.16c-0.265-0.049-0.626 0.029-0.829 0.223-0.704 0.665-1.379 1.362-2.031 2.080-0.052 0.059-0.151 0.157-0.115 0.252 0.030 0.079 0.095 0.118 0.174 0.144 0.255 0.082 0.55 0 0.776-0.128 0.088-0.049 0.177-0.092 0.262-0.138 0.16-0.085 0.344-0.344 0.102-0.455-0.265-0.118-0.583-0.013-0.825 0.108h0.003z"></path>
<path d="M17.044 22.083c0.255-0.409 0.511-0.819 0.757-1.235 0.046-0.082 0.066-0.167 0-0.246s-0.223-0.105-0.321-0.105c-0.157 0-0.321 0.026-0.465 0.092-0.118 0.052-0.246 0.121-0.318 0.233-0.265 0.406-0.517 0.822-0.773 1.235-0.049 0.082-0.066 0.17 0 0.249s0.226 0.105 0.324 0.105c0.16 0 0.328-0.026 0.472-0.095 0.118-0.052 0.252-0.121 0.324-0.236v0.003z"></path>
<path d="M16.871 21.307c0.177 0.216 0.354 0.432 0.537 0.645 0.036 0.036 0.082 0.062 0.134 0.072 0.059 0.023 0.121 0.033 0.187 0.033 0.079 0 0.154-0.007 0.229-0.023 0.082-0.013 0.16-0.036 0.236-0.069l0.134-0.069c0.072-0.043 0.134-0.095 0.183-0.164l0.039-0.085c0.013-0.059 0-0.111-0.043-0.157-0.17-0.219-0.347-0.436-0.521-0.648-0.039-0.039-0.082-0.062-0.134-0.072-0.059-0.023-0.124-0.033-0.19-0.033-0.079 0-0.157 0.007-0.233 0.023-0.082 0.013-0.16 0.036-0.239 0.069l-0.134 0.069c-0.072 0.043-0.134 0.098-0.187 0.164l-0.043 0.088c-0.013 0.062 0 0.115 0.043 0.16v-0.003z"></path>
<path d="M1.638 16.457l-1.52 1.52c-0.062 0.062-0.141 0.151-0.115 0.249 0.026 0.092 0.141 0.144 0.223 0.157 0.141 0.026 0.291 0.016 0.429-0.026s0.285-0.092 0.383-0.193l1.523-1.52c0.062-0.062 0.141-0.151 0.115-0.249-0.026-0.092-0.141-0.144-0.223-0.157-0.141-0.026-0.292-0.016-0.429 0.026s-0.285 0.092-0.383 0.193h-0.003z"></path>
<path d="M6.465 19.139l-2.771 2.774c-0.062 0.062-0.141 0.151-0.115 0.252 0.026 0.092 0.141 0.144 0.226 0.16 0.259 0.049 0.629-0.026 0.822-0.219l2.774-2.774c0.062-0.062 0.141-0.154 0.115-0.252-0.026-0.095-0.141-0.144-0.226-0.16-0.259-0.049-0.632 0.026-0.825 0.223v-0.003z"></path>
<path d="M16.212 26.118c-0.865 0.953-1.729 1.909-2.591 2.862-0.062 0.066-0.144 0.151-0.115 0.252 0.026 0.095 0.144 0.144 0.226 0.16 0.249 0.046 0.645-0.023 0.829-0.223 0.868-0.953 1.733-1.909 2.597-2.862 0.062-0.069 0.144-0.151 0.118-0.255-0.026-0.095-0.144-0.147-0.229-0.164-0.252-0.046-0.652 0.023-0.835 0.223v0.007z"></path>
<path d="M24.525 29.066c-0.865 0.835-1.726 1.67-2.591 2.505-0.062 0.062-0.144 0.154-0.118 0.252s0.144 0.147 0.229 0.16c0.265 0.049 0.629-0.029 0.832-0.223 0.868-0.835 1.733-1.67 2.597-2.505 0.066-0.062 0.144-0.157 0.118-0.255s-0.144-0.147-0.229-0.164c-0.269-0.049-0.635 0.029-0.838 0.226v0.003z"></path>
</symbol>
<symbol id="icon-line" viewBox="0 0 268 32">
<path fill="#00308f" style="fill: var(--color1, #00308f)" d="M58.282 6.516c25.437-0.937 50.888-1.54 76.339-1.808s50.667-0.179 75.992 0.245c14.388 0.245 28.788 0.58 43.176 1.026l1.952-4.575c-32.845 0.915-65.677 2.053-98.508 3.414s-65.663 2.946-98.495 4.775c-18.43 1.027-36.847 2.098-55.278 3.258-1.080 0.067-2.7 0.513-3.309 2.209-0.568 1.584 0.485 2.41 1.357 2.365 34.216-1.406 68.46-1.54 102.69-0.379s68.432 3.637 102.593 7.386c19.193 2.098 38.371 4.619 57.521 7.543 1.039 0.156 2.755-0.669 3.309-2.209 0.61-1.674-0.525-2.254-1.356-2.365-34.078-5.2-68.239-9.127-102.428-11.76s-68.433-3.95-102.663-3.972c-19.234 0-38.467 0.379-57.701 1.183l-1.952 4.575c32.818-2.075 65.649-3.905 98.481-5.534 32.832-1.607 65.663-3.013 98.494-4.173 18.432-0.647 36.876-1.25 55.306-1.763 1.080-0.022 2.713-0.536 3.309-2.209 0.595-1.674-0.499-2.343-1.357-2.365-25.465-0.759-50.902-1.227-76.352-1.339-25.452-0.112-50.667 0.089-75.994 0.647-14.387 0.312-28.788 0.736-43.175 1.272-1.080 0.045-2.714 0.536-3.309 2.209-0.568 1.584 0.485 2.41 1.357 2.365v-0.022z"></path>
</symbol>
</defs>
</svg>
